<svg xmlns="http://www.w3.org/2000/svg" viewBox="0 0 125.831 35.822">
    <defs>
        <style>
            .cls-1{fill:#26c6ec}
        </style>
    </defs>
    <g id="Group_2" data-name="Group 2" transform="translate(-44.748)">
        <path id="Path_1" d="M31.845 7.55a3.689 3.689 0 0 0-.317-1.495 5.3 5.3 0 0 0 .781-.4A5.03 5.03 0 0 0 34.674 1.1a1.006 1.006 0 0 0-2.012 0A3.069 3.069 0 0 1 31.3 3.916a3.825 3.825 0 0 1-1.177.5 3.735 3.735 0 0 0-2.031-.6 3.774 3.774 0 0 0-1.86.492c-4.852-4.451-9.7-4.53-12.975-3.77a16.6 16.6 0 0 0-5.451 2.394 3.778 3.778 0 0 0-.762.559 3.714 3.714 0 0 0-.671 4.551 23 23 0 0 0-4.586 7.183A23.427 23.427 0 0 0 .183 22.6a24.479 24.479 0 0 0 .579 6.958A3.684 3.684 0 0 0 0 31.808 3.751 3.751 0 0 0 5.7 35a24.184 24.184 0 0 0 5.769.668c.463 0 .945-.012 1.439-.043a23.658 23.658 0 0 0 7.4-1.6 22.949 22.949 0 0 0 7.214-4.582 3.768 3.768 0 0 0 1.854.492 3.729 3.729 0 0 0 2.865-1.335l.012.006a16.047 16.047 0 0 0 2.964-6.192c.762-3.281.683-8.155-3.872-13.022a3.621 3.621 0 0 0 .5-1.842zm-3.75-1.732a1.732 1.732 0 1 1-1.739 1.732 1.738 1.738 0 0 1 1.738-1.732zM9.635 4.463A1.732 1.732 0 1 1 7.9 6.195 1.7 1.7 0 0 1 8.385 5c.073-.055.232-.182.482-.352a1.611 1.611 0 0 1 .768-.185zM3.75 33.54a1.732 1.732 0 1 1 1.738-1.732A1.738 1.738 0 0 1 3.75 33.54zm15.861-1.4a21.684 21.684 0 0 1-6.738 1.477 23.657 23.657 0 0 1-5.673-.351 3.678 3.678 0 0 0 .3-1.466 3.748 3.748 0 0 0-4.958-3.537 23.27 23.27 0 0 1-.354-5.56 21.445 21.445 0 0 1 1.47-6.745 20.829 20.829 0 0 1 4.154-6.506 3.746 3.746 0 0 0 3.732-.052 27.317 27.317 0 0 1 5.653 3.2 27.157 27.157 0 0 1 5.055 4.776 24.8 24.8 0 0 1 3.948 6.842 3.7 3.7 0 0 0-.567 1.975 3.653 3.653 0 0 0 .476 1.817 20.813 20.813 0 0 1-6.497 4.132zm9.769-4.211a1.732 1.732 0 1 1 1.739-1.729 1.738 1.738 0 0 1-1.738 1.731zm3.9-6.034a13.665 13.665 0 0 1-.744 2.291 3.754 3.754 0 0 0-3.153-1.72 3.821 3.821 0 0 0-1.579.346 26.721 26.721 0 0 0-4.019-6.721 29.055 29.055 0 0 0-5.458-5.141A29.437 29.437 0 0 0 13 7.854a3.687 3.687 0 0 0 .39-1.653 3.73 3.73 0 0 0-1.634-3.087 13.791 13.791 0 0 1 1.959-.614 11.325 11.325 0 0 1 5.433.03 13.421 13.421 0 0 1 5.665 3.208 3.687 3.687 0 0 0-.476 1.817 3.749 3.749 0 0 0 3.75 3.737 3.793 3.793 0 0 0 1.829-.474C33.052 14.18 34.18 17.9 33.278 21.9z" class="cls-1" data-name="Path 1" transform="translate(135 -.094)"/>
        <path id="Path_2" d="M979.572 257.8a2.671 2.671 0 0 0-2.872 2.941 2.6 2.6 0 0 0 .732 2.03 3.228 3.228 0 0 0 2.177.62h1.9a1 1 0 0 0 1.006-1v-1.051a4 4 0 0 0-.707-2.613 2.683 2.683 0 0 0-2.236-.927zm.939 3.591h-.9a1.8 1.8 0 0 1-.835-.109 1.371 1.371 0 0 1-.067-.535 1.175 1.175 0 0 1 .189-.766 1.046 1.046 0 0 1 .671-.176c.537 0 .646.14.683.182a2.211 2.211 0 0 1 .256 1.343z" class="cls-1" data-name="Path 2" transform="translate(-917.139 -242.134)"/>
        <path id="Path_3" d="M751.613 174.5a7.175 7.175 0 0 0-5.751 2.552 9.134 9.134 0 0 0-1.9 5.834c0 2.6.476 4.3 1.549 5.518 1.226 1.385 3.134 2.03 6.019 2.03h.567a2.885 2.885 0 0 1-.72 1.106 4.366 4.366 0 0 1-3.019.9h-3.811a3.966 3.966 0 0 1-3.1-.978 4.279 4.279 0 0 1-.756-2.874v-6.751a1 1 0 0 0-1.006-1h-4.872a1 1 0 0 0-1.006 1v6.963c0 6.733 3.872 10.92 10.111 10.92h4.659a10.77 10.77 0 0 0 4.4-.893 9.855 9.855 0 0 0 3.336-2.419 11.288 11.288 0 0 0 2.8-7.608v-5.487c0-2.935-.738-5.2-2.2-6.727a7.094 7.094 0 0 0-5.3-2.086zm5.47 14.292a9.311 9.311 0 0 1-2.281 6.265 8.145 8.145 0 0 1-6.238 2.649H743.9a7.785 7.785 0 0 1-5.952-2.333 9.6 9.6 0 0 1-2.147-6.581v-5.961h2.86v5.749a6.025 6.025 0 0 0 1.256 4.193c.982 1.118 2.494 1.659 4.622 1.659h3.811a6.248 6.248 0 0 0 4.397-1.432 5.376 5.376 0 0 0 1.61-3.464 1 1 0 0 0-1-1.112h-1.823c-3.317 0-4.214-1.015-4.513-1.349-.726-.82-1.043-2.109-1.043-4.187a7.13 7.13 0 0 1 1.445-4.558 5.176 5.176 0 0 1 4.2-1.823 5.078 5.078 0 0 1 3.83 1.452c1.092 1.148 1.647 2.947 1.647 5.347v5.487z" class="cls-1" data-name="Path 3" transform="translate(-689.052 -163.896)"/>
        <path id="Path_4" d="M1210.931 111.995a7.548 7.548 0 0 0-5.6-1.938 7.116 7.116 0 0 0-5.513 2.37 7.243 7.243 0 0 0-1.842 4.752 9.53 9.53 0 0 0 .683 4.077c-.281-.012-.592-.012-.951-.012h-2.329c-.5 0-1.537 0-1.537-1.106v-4.011a1 1 0 0 0-1.006-1h-4.873a1 1 0 0 0-1.006 1v4.011a.871.871 0 0 1-1.11 1.106h-2.964c-1.1 0-1.335-.188-1.805-1.452l-3.811-10.543a1 1 0 0 0-.537-.577 1.025 1.025 0 0 0-.793-.012l-4.659 1.9a1 1 0 0 0-.561 1.276c2.665 7.207 3.116 8.647 3.116 9.145 0 .073-.012.085-.031.1a1.429 1.429 0 0 1-.872.17h-7.836a.994.994 0 0 0-.726.31 1.006 1.006 0 0 0-.281.735l.214 5.275a1.006 1.006 0 0 0 1.006.96h8.257a6.41 6.41 0 0 0 4.665-1.732 5.75 5.75 0 0 0 1.762 1.2 7.175 7.175 0 0 0 2.891.529h2.964a5.777 5.777 0 0 0 4.452-1.732 6.485 6.485 0 0 0 4.86 1.732h9.525a8.831 8.831 0 0 0 6.306-2.072 7.5 7.5 0 0 0 2.11-5.682v-2.109c.001-3.036-.704-5.218-2.168-6.67zm.158 8.775c0 3.871-2.1 5.749-6.4 5.749h-9.525a4.243 4.243 0 0 1-4.031-1.872 1.009 1.009 0 0 0-1.671 0 3.778 3.778 0 0 1-3.61 1.872h-2.964a4.111 4.111 0 0 1-3.824-1.872 1.007 1.007 0 0 0-1.689.03 4.108 4.108 0 0 1-3.805 1.847h-7.293l-.134-3.269h6.787c2.146 0 2.909-1.173 2.909-2.267 0-.772-.146-1.452-2.9-8.933l2.787-1.136 3.458 9.565c0 .006 0 .006.006.012.652 1.75 1.464 2.765 3.7 2.765h2.964a2.786 2.786 0 0 0 3.122-3.111v-3.008h2.86v3.008c0 1.92 1.36 3.111 3.549 3.111h2.329a7.745 7.745 0 0 1 3.47.571 1 1 0 0 0 .86-1.8c-1.573-.942-2.055-2.072-2.055-4.837a5.3 5.3 0 0 1 1.336-3.421 5.176 5.176 0 0 1 4.012-1.7 5.667 5.667 0 0 1 4.183 1.355c1.049 1.039 1.586 2.807 1.586 5.238v2.1z" class="cls-1" data-name="Path 4" transform="translate(-1093.096 -101.987)"/>
        <path id="Path_5" d="M1797.352 212a2.95 2.95 0 0 0-2.025 5.1 4.019 4.019 0 0 0 2.622.7h1.061a1 1 0 0 0 1.006-1v-1.9a3.2 3.2 0 0 0-.622-2.169 2.624 2.624 0 0 0-2.042-.731zm.64 3.8h-.055a2.215 2.215 0 0 1-1.348-.255c-.042-.036-.183-.152-.183-.681a1.036 1.036 0 0 1 .177-.668 1.173 1.173 0 0 1 .768-.188 1.253 1.253 0 0 1 .537.067 1.89 1.89 0 0 1 .11.832v.893z" class="cls-1" data-name="Path 5" transform="translate(-1684.974 -199.117)"/>
        <path id="Path_6" d="M928.432 38.738a3.728 3.728 0 0 1 5.452 0 7.019 7.019 0 1 0-5.452 0zm5.458-5.438a1.714 1.714 0 1 1-1.72 1.714 1.719 1.719 0 0 1 1.72-1.714zm-5.458 0a1.714 1.714 0 1 1-1.72 1.714 1.719 1.719 0 0 1 1.72-1.714z" class="cls-1" data-name="Path 6" transform="translate(-868.31 -29.398)"/>
        <path id="Path_7" d="M1451.032 38.738a3.719 3.719 0 1 0-3.732-3.719 3.729 3.729 0 0 0 3.732 3.719zm0-5.439a1.714 1.714 0 1 1-1.72 1.714 1.719 1.719 0 0 1 1.72-1.713z" class="cls-1" data-name="Path 7" transform="translate(-1359.041 -29.398)"/>
        <path id="Path_8" d="M1782.832 7.444a3.722 3.722 0 1 0-3.732-3.725 3.729 3.729 0 0 0 3.732 3.725zm0-5.439a1.714 1.714 0 1 1-1.72 1.714 1.719 1.719 0 0 1 1.72-1.714z" class="cls-1" data-name="Path 8" transform="translate(-1670.607)"/>
    </g>
</svg>
